<svg xmlns="http://www.w3.org/2000/svg" viewBox="0 0 212.1 25.23"><title>logo-afflelou</title><polygon points="23.36 24.81 23.36 0.45 28.45 0.45 28.45 20.76 36.08 20.76 36.08 24.81 23.36 24.81" style="fill:#a7aaac"/><rect x="58.13" y="0.45" width="5.1" height="24.36" style="fill:#a7aaac"/><polygon points="66.16 24.81 66.16 0.45 73.04 0.45 79.52 17.32 79.59 17.32 79.59 0.45 84.34 0.45 84.34 24.81 77.63 24.81 70.98 6.99 70.92 6.99 70.92 24.81 66.16 24.81" style="fill:#a7aaac"/><path d="M12.89-.26.32,24.1H5.86l2.61-5.4h7.09v5.4h5.1V-.26ZM15.57,15H10.28L15.34,4.43h.22Z" transform="translate(-0.32 0.71)" style="fill:#a7aaac"/><path d="M92.23-.24,79.67,24.12H85.2l2.61-5.4h7.08v5.4H100V-.24ZM94.91,15H89.62L94.68,4.45h.22Z" transform="translate(-0.32 0.71)" style="fill:#201d1d"/><path d="M44.12-.26,37.37,24.1h5l1.38-5.4h7l1.35,5.4h5.36L50.83-.26ZM44.79,15,47.12,4.43h.07L49.65,15Z" transform="translate(-0.32 0.71)" style="fill:#a7aaac"/><polygon points="102.39 24.79 102.39 0.55 114.98 0.55 114.98 4.28 107.46 4.28 107.46 10.49 114.14 10.49 114.14 14.22 107.46 14.22 107.46 24.79 102.39 24.79" style="fill:#201d1d"/><polygon points="117.05 24.79 117.05 0.55 129.63 0.55 129.63 4.28 122.11 4.28 122.11 10.49 128.79 10.49 128.79 14.22 122.11 14.22 122.11 24.79 117.05 24.79" style="fill:#201d1d"/><polygon points="131.55 24.79 131.55 0.55 136.62 0.55 136.62 20.76 144.21 20.76 144.21 24.79 131.55 24.79" style="fill:#201d1d"/><polygon points="146.28 24.79 146.28 0.55 159.51 0.55 159.51 4.28 151.35 4.28 151.35 10.25 158.36 10.25 158.36 13.98 151.35 13.98 151.35 21.07 159.78 21.07 159.78 24.79 146.28 24.79" style="fill:#201d1d"/><polygon points="161.87 24.79 161.87 0.55 166.94 0.55 166.94 20.76 174.53 20.76 174.53 24.79 161.87 24.79" style="fill:#201d1d"/><path d="M212.43-.16V17c0,3.63-2.05,7.45-8.23,7.45-5.57,0-8.26-2.89-8.26-7.45V-.16H201V16.7c0,3,1.27,4.16,3.12,4.16,2.22,0,3.22-1.48,3.22-4.16V-.16Z" transform="translate(-0.32 0.71)" style="fill:#201d1d"/><path d="M184.26-.71c-5.87,0-9.5,4.1-9.5,12.63s3.58,12.6,9.5,12.6,9.5-4.11,9.5-12.6S190.13-.71,184.26-.71m0,21.55c-2.86,0-4.08-3.44-4.08-8.91s1.22-9,4.08-9,4.08,3.44,4.08,9-1.22,8.91-4.08,8.91" transform="translate(-0.32 0.71)" style="fill:#201d1d"/></svg>