<?xml version="1.0" encoding="utf-8"?>
<!-- Generator: Adobe Illustrator 19.2.1, SVG Export Plug-In . SVG Version: 6.00 Build 0)  -->
<svg version="1.1" id="Calque_1" xmlns="http://www.w3.org/2000/svg" xmlns:xlink="http://www.w3.org/1999/xlink" x="0px" y="0px"
	 viewBox="0 0 800 350" style="enable-background:new 0 0 800 350;" xml:space="preserve">
<style type="text/css">
	.st0{fill:#656565;}
	.st1{fill:#E52620;}
	.st2{fill:#FFFFFF;}
</style>
<g>
	<g>
		<g>
			<path class="st0" d="M587,135.5c0-15.9-10.1-26.2-25.6-26.2c-16.4,0-26.7,11.5-26.7,29.9c0,18.3,10.5,29.3,28.1,29.3
				c8.1,0,15.9-2.2,21-5.8c0-0.5,0.4-8.1,0.5-9.7c-5.2,3.4-12.5,5.4-18.8,5.4c-9.4,0-15.6-5-16.5-14.9h31.4
				C585.3,143.6,587,141.6,587,135.5z M571.8,135.5h-22.8c0.5-10.7,5.1-16.5,12.2-16.5c7.3,0,12.2,5.5,12.2,14.8
				C573.4,134.6,573.2,135.5,571.8,135.5z"/>
			<path class="st0" d="M520.7,157.7c-1.8,1-7.8,2.5-7.8-3.2v-68h-13.5v68.7c0,4.1,0.6,7.2,1.9,9c1.7,2.6,4.8,3.9,9.1,3.9
				c4,0,8-1.4,9.9-2.6C520.3,165.1,520.6,159.2,520.7,157.7z"/>
			<path class="st0" d="M479,86.1c0.4,0.1,0.4-0.1,0.3-0.5c0-0.3-0.5-2.7-0.7-4.2l-10.5-5.8l-10.5,5.8c-0.2,1.5-0.7,3.9-0.7,4.2
				c-0.1,0.4-0.1,0.6,0.3,0.5c0.4-0.1,10.9-1.9,10.9-1.9S478.6,86,479,86.1z"/>
			<rect x="461" y="92.5" class="st0" width="14.2" height="74.8"/>
			<path class="st0" d="M745.5,135.5c0-15.9-10-26.2-25.6-26.2c-16.5,0-26.7,11.5-26.7,29.9c0,18.3,10.5,29.3,28.1,29.3
				c8.1,0,15.9-2.2,21-5.8c0-0.5,0.4-8.1,0.5-9.7c-5.2,3.4-12.5,5.4-18.8,5.4c-9.4,0-15.6-5-16.6-14.9h31.4
				C743.8,143.6,745.5,141.6,745.5,135.5z M730.3,135.5h-22.9c0.5-10.7,5.1-16.5,12.2-16.5c7.4,0,12.2,5.5,12.2,14.8
				C731.9,134.6,731.7,135.5,730.3,135.5z"/>
			<path class="st0" d="M665,86.6c0,0,0,21.5,0,23.7c-2.6-0.6-6.3-0.9-8.2-0.9c-19,0-30.8,12.3-30.8,32.2c0,16.9,8.7,27,23.2,27
				c5.6,0,11.6-1.8,15.8-7l0.2,5.8h13.4V86.6H665z M665,145.1c0,4.4-0.8,7.2-2.7,9.4c-1.8,2.3-5.2,3.6-9.1,3.6
				c-8.4,0-13.2-6.3-13.2-17.3c0-14.3,6.7-22.4,18.5-22.4c2.3,0,4.6,0.2,6.1,0.6l0.4,0.1V145.1z"/>
			<g>
				<polygon class="st0" points="459.2,287 473.4,287 473.4,251.3 498,251.3 498,240.7 473.4,240.7 473.4,217.9 503.7,217.9 
					503.7,207.2 459.2,207.2 				"/>
				<path class="st0" d="M711.2,238.8c6,0,9,4.4,10.5,10.5l12.4-2.6c-1.3-5.8-3.7-10.1-7.4-13c-4.1-3.1-9.5-4.7-15.6-4.7
					c-16.6,0-26.6,11.2-26.6,29.9c0,18.6,10,29.3,27.5,29.3c7.2,0,14.7-2,19.7-5.3c0-0.5,0.4-8.4,0.5-10c-5.1,3.2-11.6,5.2-17.2,5.2
					c-10.5,0-16.4-6.6-16.4-20.3C698.7,245.9,703.9,238.8,711.2,238.8z"/>
				<path class="st0" d="M524.5,237.9l-0.2-7.5h-12.6V287h13.5v-28.1c0-11.8,2.5-18.9,18.7-18.9V229
					C533.9,228.4,528.3,231.6,524.5,237.9z"/>
				<path class="st0" d="M594.7,235c-4.2-4-10.7-6-19.7-6c-7.2,0-13.9,1.3-19.2,3.7v9.7c5.3-2.6,11.7-4.1,17.5-4.1
					c4.9,0,8.4,1.1,10.4,3.3c2.1,2.3,2.5,5,2.5,8.6v2.2c-2.7-0.9-7.8-2.1-13-2.1c-13.9,0-22.5,7.1-22.5,19.1
					c0,11.8,7.4,18.8,19.9,18.8c7.2,0,12.2-2.8,15.6-6.4l0.2,5.1h13.3v-37.5C599.7,242.8,598.1,238.2,594.7,235z M586.2,268.4
					c0,3.2-1,5.9-2.8,7.7c-1.9,1.8-4.9,2.9-8.2,2.9c-6.7,0-10.7-3.8-10.7-10.2c0-6.5,4.4-10.3,11.9-10.3c3.5,0,7.4,0.8,9.4,1.5
					l0.3,0.1V268.4z"/>
				<path class="st0" d="M795.9,255.2c0-15.9-10.1-26.2-25.6-26.2c-16.5,0-26.7,11.5-26.7,29.9c0,18.3,10.5,29.3,28.1,29.3
					c8.1,0,15.9-2.2,21-5.8c0-0.5,0.4-8.1,0.5-9.7c-5.2,3.4-12.5,5.4-18.8,5.4c-9.4,0-15.6-5-16.5-14.9h31.4
					C794.3,263.3,795.9,261.3,795.9,255.2z M780.8,255.3h-22.8c0.5-10.7,5.1-16.5,12.2-16.5c7.3,0,12.2,5.5,12.2,14.8
					C782.4,254.3,782.2,255.3,780.8,255.3z"/>
				<path class="st0" d="M668.3,274.3v-24.5c0-6.9-1.5-11.6-4.8-15.2c-3.4-3.6-8.8-5.5-15.4-5.5c-7,0-13.1,2.5-17,7l-0.2-5.7h-12.9
					V287h13.5v-32.6c0-4.3,0.5-7.8,2.8-10.5c2.2-2.6,5.5-3.9,9.5-3.9c3.9,0,6.9,1.2,8.9,3.5c1.9,2.3,2.3,5,2.3,8.8V275
					c0,4.1,0.6,7.1,1.9,9c1.7,2.6,4.8,3.9,9.1,3.9c3.3,0,6.7-0.9,8.8-2l0.4-8C672.6,278.7,668.3,279,668.3,274.3z"/>
			</g>
		</g>
		<g>
			<g>
				<g>
					<path class="st1" d="M329.3,78.2c0.2,0.8,6.6,18.7,12,25.4c3.7,4.6,10,6.6,18.8,3.3c15.7-5.9,63.2-33.8,76.4-42.3V23.7
						C392.8,49.9,345.2,75.4,329.3,78.2z"/>
				</g>
				<g>
					<g>
						<g>
							<path class="st0" d="M321.8,248.2c4.5,11.2,7.3,17.2,20.2,17.2c13,0,53.9,0,53.9,0l-34.3-72.5c-16.4,9.1-33.6,18.3-51.2,27.2
								C316.4,234.7,320.7,245.5,321.8,248.2z"/>
						</g>
						<path class="st0" d="M337.8,142.5l-44.1-93.3h-61.3l-84.7,159.9c0,0,26.3-6.2,53.2-16.4c17.5-6.6,21.9-10.6,29.4-27
							c6.6-14.5,30.7-68.3,30.7-68.3s13.8,34.2,28.3,70.2c-69.2,34.2-139.4,61.3-192.8,61.3c-64.4,0-78.3-35.8-39.8-74.8
							c31.5-32,81.7-56.9,116.6-63.3c10.6-1.9,19-2,20.4-2.1c-0.6-4.1-1.3-8-2.1-11.7c-3.8-18.8-9.7-31.4-29.3-31.4
							c-35.1,0-88.5,23.2-123.8,58.4C2.2,140.2-1.1,183.1,9,209.4c14.1,36.6,54.9,70.5,142.2,57.1c87.3-13.4,212.9-85.7,285.3-131.4
							V86.5C406.6,104,372.9,123.6,337.8,142.5z"/>
					</g>
				</g>
			</g>
			<g>
				<g>
					<rect x="13.7" y="291.1" class="st0" width="394.3" height="35.2"/>
				</g>
			</g>
		</g>
	</g>
</g>
<g>
	<rect y="0.7" class="st2" width="799.5" height="349.3"/>
	<g>
		<g>
			<path class="st0" d="M601,124c0-14.3-9.4-23.5-23.9-23.5c-15.3,0-24.9,10.3-24.9,26.8c0,16.5,9.8,26.3,26.2,26.3
				c7.5,0,14.8-1.9,19.6-5.2c0-0.4,0.4-7.2,0.5-8.7c-4.8,3-11.7,4.9-17.5,4.9c-8.7,0-14.5-4.5-15.4-13.4h29.3
				C599.5,131.3,601,129.5,601,124z M586.9,124.1h-21.3c0.4-9.6,4.8-14.8,11.4-14.8c6.9,0,11.4,5,11.4,13.2
				C588.4,123.2,588.2,124.1,586.9,124.1z"/>
			<path class="st0" d="M539.2,143.9c-1.7,0.9-7.3,2.2-7.3-2.8v-61h-12.6v61.6c0,3.7,0.6,6.4,1.8,8.1c1.6,2.3,4.5,3.5,8.5,3.5
				c3.7,0,7.5-1.2,9.2-2.3C538.9,150.6,539.2,145.3,539.2,143.9z"/>
			<path class="st0" d="M500.4,79.7c0.4,0.1,0.4-0.1,0.3-0.4c0-0.2-0.4-2.4-0.7-3.8l-9.8-5.2l-9.8,5.2c-0.2,1.3-0.6,3.5-0.7,3.8
				c-0.1,0.3-0.1,0.5,0.3,0.4c0.4-0.1,10.2-1.7,10.2-1.7S500,79.6,500.4,79.7z"/>
			<rect x="483.6" y="85.4" class="st0" width="13.3" height="67.1"/>
			<path class="st0" d="M748.9,124c0-14.3-9.4-23.5-23.9-23.5c-15.4,0-24.9,10.3-24.9,26.8c0,16.5,9.8,26.3,26.2,26.3
				c7.5,0,14.8-1.9,19.6-5.2c0-0.4,0.4-7.2,0.5-8.7c-4.8,3-11.6,4.9-17.5,4.9c-8.7,0-14.5-4.5-15.4-13.4h29.3
				C747.3,131.3,748.9,129.5,748.9,124z M734.7,124.1h-21.3c0.5-9.6,4.7-14.8,11.4-14.8c6.9,0,11.4,5,11.4,13.2
				C736.2,123.2,736.1,124.1,734.7,124.1z"/>
			<path class="st0" d="M673.8,80.1c0,0,0,19.3,0,21.2c-2.4-0.5-5.8-0.8-7.6-0.8c-17.7,0-28.8,11.1-28.8,28.9
				c0,15.2,8.1,24.3,21.7,24.3c5.3,0,10.8-1.7,14.7-6.3l0.2,5.2h12.5V80.1H673.8z M673.8,132.6c0,4-0.7,6.4-2.5,8.4
				c-1.7,2-4.8,3.2-8.5,3.2c-7.8,0-12.3-5.6-12.3-15.5c0-12.8,6.3-20.1,17.2-20.1c2.1,0,4.3,0.2,5.7,0.5l0.4,0.1V132.6z"/>
			<g>
				<polygon class="st0" points="481.9,259.9 495.1,259.9 495.1,227.9 518.1,227.9 518.1,218.4 495.1,218.4 495.1,198 523.4,198 
					523.4,188.4 481.9,188.4 				"/>
				<path class="st0" d="M716.9,216.7c5.6,0,8.4,4,9.8,9.4l11.6-2.3c-1.2-5.2-3.5-9.1-6.9-11.6c-3.8-2.8-8.9-4.2-14.6-4.2
					c-15.5,0-24.8,10-24.8,26.8c0,16.7,9.4,26.3,25.7,26.3c6.7,0,13.7-1.8,18.4-4.8c0-0.4,0.4-7.6,0.5-9c-4.8,2.9-10.8,4.7-16,4.7
					c-9.8,0-15.3-6-15.3-18.2C705.3,223.1,710.1,216.7,716.9,216.7z"/>
				<path class="st0" d="M542.8,215.9l-0.2-6.7h-11.7v50.8h12.6v-25.2c0-10.6,2.3-17,17.4-17V208
					C551.6,207.4,546.3,210.3,542.8,215.9z"/>
				<path class="st0" d="M608.3,213.3c-3.9-3.6-10-5.4-18.4-5.4c-6.7,0-13,1.2-17.9,3.3v8.7c4.9-2.3,10.9-3.6,16.3-3.6
					c4.6,0,7.9,1,9.7,3c1.9,2,2.3,4.5,2.3,7.7v2c-2.5-0.8-7.3-1.9-12.1-1.9c-13,0-21,6.4-21,17.2c0,10.6,6.9,16.8,18.6,16.8
					c6.7,0,11.4-2.5,14.5-5.8l0.2,4.6h12.4v-33.6C612.9,220.3,611.4,216.2,608.3,213.3z M600.4,243.3c0,2.9-0.9,5.3-2.6,6.9
					c-1.8,1.6-4.6,2.6-7.6,2.6c-6.2,0-10-3.4-10-9.2c0-5.8,4.1-9.3,11.1-9.3c3.2,0,6.9,0.7,8.8,1.3l0.3,0.1V243.3z"/>
				<path class="st0" d="M795.9,231.5c0-14.3-9.4-23.5-23.9-23.5c-15.4,0-24.9,10.3-24.9,26.8c0,16.5,9.8,26.3,26.2,26.3
					c7.5,0,14.8-1.9,19.6-5.2c0-0.4,0.4-7.3,0.5-8.7c-4.8,3-11.6,4.9-17.5,4.9c-8.7,0-14.5-4.5-15.4-13.4h29.3
					C794.4,238.7,795.9,236.9,795.9,231.5z M781.8,231.5h-21.3c0.5-9.6,4.8-14.8,11.4-14.8c6.8,0,11.4,5,11.4,13.3
					C783.3,230.6,783.1,231.5,781.8,231.5z"/>
				<path class="st0" d="M676.9,248.5v-22c0-6.2-1.4-10.4-4.5-13.6c-3.2-3.2-8.2-4.9-14.4-4.9c-6.6,0-12.2,2.2-15.9,6.3l-0.2-5.1
					h-12v50.8h12.6v-29.2c0-3.9,0.4-7,2.6-9.4c2.1-2.3,5.1-3.5,8.9-3.5c3.6,0,6.5,1.1,8.3,3.1c1.8,2.1,2.1,4.5,2.1,7.9v20.4
					c0,3.7,0.6,6.4,1.8,8.1c1.6,2.3,4.5,3.5,8.5,3.5c3.1,0,6.2-0.8,8.2-1.8l0.3-7.2C680.9,252.5,676.9,252.8,676.9,248.5z"/>
			</g>
		</g>
		<g>
			<g>
				<path class="st1" d="M304.7,85.8c0.2,0.7,6.1,17.4,11.2,23.6c3.4,4.2,9.3,6.1,17.5,3c14.6-5.5,58.9-31.4,71.1-39.4V35
					C363.8,59.4,319.5,83.1,304.7,85.8z"/>
			</g>
			<g>
				<g>
					<path class="st0" d="M297.7,244c4.2,10.4,6.8,16,18.8,16c12.1,0,50.1,0,50.1,0l-31.9-67.5c-15.3,8.5-31.3,17.1-47.6,25.3
						C292.6,231.3,296.7,241.4,297.7,244z"/>
				</g>
				<path class="st0" d="M312.6,145.5l-41.1-86.8h-57.1l-78.8,148.8c0,0,24.5-5.8,49.5-15.3c16.3-6.2,20.4-9.9,27.3-25.1
					c6.1-13.5,28.6-63.5,28.6-63.5s12.9,31.9,26.4,65.3c-64.4,31.9-129.7,57-179.4,57c-59.9,0-72.8-33.3-37.1-69.6
					c29.3-29.8,76-52.9,108.5-58.9c9.8-1.8,17.7-1.9,19-2c-0.6-3.9-1.2-7.5-1.9-10.9c-3.6-17.5-9-29.2-27.3-29.2
					c-32.7,0-82.4,21.6-115.2,54.3C0.3,143.4-2.7,183.3,6.7,207.8c13.1,34.1,51.1,65.6,132.3,53.2c81.2-12.4,198.1-79.8,265.5-122.3
					V93.5C376.6,109.7,345.2,127.9,312.6,145.5z"/>
				<g>
					<g>
						<rect x="11.1" y="283.8" class="st0" width="366.9" height="32.8"/>
					</g>
				</g>
			</g>
		</g>
	</g>
</g>
</svg>
